<svg xmlns="http://www.w3.org/2000/svg" viewBox="0 0 1024 1024">
<path fill="#A9DCE8" transform="translate(121.95,668.42) scale(0.209961,-0.209961)" d="M63.66632080078125 0V119.3353271484375L861.9984741210938 1170.9989013671875Q908.9984741210938 1232.6654663085938 957.3318481445312 1294.6653747558594Q1005.6652221679688 1356.665283203125 1054.665283203125 1417.99853515625L1069.9990844726562 1367.9976806640625Q987.6656494140625 1367.9976806640625 905.9988708496094 1367.9976806640625Q824.3320922851562 1367.9976806640625 741.9986572265625 1367.9976806640625H98.6661376953125V1490H1171.6677856445312V1370.6646728515625L383.66937255859375 332.3349609375Q334.3359375 267.0015869140625 284.0024719238281 202.168212890625Q233.66900634765625 137.3348388671875 180.6688232421875 72.00146484375L165.33502197265625 122.0023193359375Q246.3350830078125 122.0023193359375 327.0018005371094 122.0023193359375Q407.66851806640625 122.0023193359375 488.6685791015625 122.0023193359375H1179.6677856445312V0Z"/>
<path fill="#F7F9FA" transform="translate(410.88,630.88) scale(0.159570,-0.159570)" d="M527.0011596679688 -18.666748046875Q393.33404541015625 -18.666748046875 290.3338317871094 33.333282470703125Q187.3336181640625 85.33331298828125 128.6668701171875 176.66677856445312Q70.0001220703125 268.000244140625 70.0001220703125 386.667236328125Q70.0001220703125 463.6671142578125 99.5 526.0004272460938Q128.9998779296875 588.333740234375 194.3333740234375 652.0006408691406Q259.6668701171875 715.6675415039062 367.00103759765625 796.00146484375L593.668212890625 966.0017700195312Q633.668212890625 996.3350830078125 666.33447265625 1030.6682434082031Q699.000732421875 1065.0014038085938 719.0003356933594 1105.0009765625Q738.9999389648438 1145.0005493164062 738.9999389648438 1191.6663818359375Q738.9999389648438 1275.3322143554688 679.1670532226562 1332.9983825683594Q619.3341674804688 1390.66455078125 529.00146484375 1390.66455078125Q469.00189208984375 1390.66455078125 420.66888427734375 1363.3314208984375Q372.33587646484375 1335.998291015625 344.0027160644531 1287.8319396972656Q315.6695556640625 1239.6655883789062 315.6695556640625 1176.999267578125Q315.6695556640625 1126.999755859375 336.6693420410156 1081.8333740234375Q357.66912841796875 1036.6669921875 402.1690673828125 980.3336181640625Q446.66900634765625 924.000244140625 515.6694946289062 838.6663818359375L1195.33642578125 0H1037.3333740234375L445.00177001953125 726.663818359375Q351.66717529296875 840.665283203125 294.500244140625 915.9991455078125Q237.33331298828125 991.3330078125 210.83346557617188 1051.4996337890625Q184.3336181640625 1111.666259765625 184.3336181640625 1178.9993286132812Q184.3336181640625 1275.9996337890625 228.50039672851562 1349.3330993652344Q272.66717529296875 1422.6665649414062 350.5007629394531 1463.6665954589844Q428.3343505859375 1504.6666259765625 529.00146484375 1504.6666259765625Q629.335205078125 1504.6666259765625 706.33544921875 1464.9999694824219Q783.335693359375 1425.3333129882812 827.5024719238281 1355.3332824707031Q871.6692504882812 1285.333251953125 871.6692504882812 1194.9998168945312Q871.6692504882812 1125.6669921875 844.5028991699219 1067.0004272460938Q817.3365478515625 1008.3338623046875 771.5033569335938 958.5003662109375Q725.670166015625 908.6668701171875 667.6696166992188 865.3331298828125L399.00115966796875 663.99853515625Q299.3350830078125 588.9990234375 251.00225830078125 526.4993591308594Q202.66943359375 463.99969482421875 202.66943359375 385.3338623046875Q202.66943359375 306.667724609375 246.16925048828125 241.16806030273438Q289.6690673828125 175.66839599609375 363.6687316894531 136.16854858398438Q437.66839599609375 96.668701171875 528.3345336914062 96.668701171875Q623.0007934570312 96.668701171875 707.0005187988281 140.66860961914062Q791.000244140625 184.66851806640625 855.8334350585938 261.50164794921875Q920.6666259765625 338.33477783203125 957.6665649414062 438.167724609375Q994.66650390625 538.0006713867188 994.66650390625 650.666748046875H1120.6689453125Q1120.6689453125 559.3331909179688 1101.8355102539062 476.49969482421875Q1083.0020751953125 393.66619873046875 1046.5018615722656 322.8327941894531Q1010.0016479492188 251.9993896484375 957.0012817382812 193.9993896484375L929.6676635742188 156.6656494140625Q860.0011596679688 75.332763671875 753.6677856445312 28.3330078125Q647.3344116210938 -18.666748046875 527.0011596679688 -18.666748046875Z"/>
<path fill="#A9DCE8" transform="translate(629.52,668.42) scale(0.209961,-0.209961)" d="M572.66650390625 0 20 1490H163.00286865234375L521.6672973632812 506.671875Q549.0005493164062 431.33868408203125 585.8341064453125 323.0044860839844Q622.6676635742188 214.6702880859375 673.0016479492188 64.00146484375H633.6676635742188Q682.6682739257812 214.6702880859375 719.8351745605469 323.0044860839844Q757.0020751953125 431.33868408203125 783.6686401367188 506.671875L1136.3329467773438 1490H1278.00244140625L729.6693725585938 0Z"/>
</svg>