<svg xmlns="http://www.w3.org/2000/svg" viewBox="0 0 2334 640">
<path fill="#4E8CA2" transform="translate(40.00,458.23) scale(0.185547,-0.185547)" d="M63.66632080078125 0V119.3353271484375L861.9984741210938 1170.9989013671875Q908.9984741210938 1232.6654663085938 957.3318481445312 1294.6653747558594Q1005.6652221679688 1356.665283203125 1054.665283203125 1417.99853515625L1069.9990844726562 1367.9976806640625Q987.6656494140625 1367.9976806640625 905.9988708496094 1367.9976806640625Q824.3320922851562 1367.9976806640625 741.9986572265625 1367.9976806640625H98.6661376953125V1490H1171.6677856445312V1370.6646728515625L383.66937255859375 332.3349609375Q334.3359375 267.0015869140625 284.0024719238281 202.168212890625Q233.66900634765625 137.3348388671875 180.6688232421875 72.00146484375L165.33502197265625 122.0023193359375Q246.3350830078125 122.0023193359375 327.0018005371094 122.0023193359375Q407.66851806640625 122.0023193359375 488.6685791015625 122.0023193359375H1179.6677856445312V0Z"/>
<path fill="#202A36" transform="translate(295.33,425.06) scale(0.141016,-0.141016)" d="M527.0011596679688 -18.666748046875Q393.33404541015625 -18.666748046875 290.3338317871094 33.333282470703125Q187.3336181640625 85.33331298828125 128.6668701171875 176.66677856445312Q70.0001220703125 268.000244140625 70.0001220703125 386.667236328125Q70.0001220703125 463.6671142578125 99.5 526.0004272460938Q128.9998779296875 588.333740234375 194.3333740234375 652.0006408691406Q259.6668701171875 715.6675415039062 367.00103759765625 796.00146484375L593.668212890625 966.0017700195312Q633.668212890625 996.3350830078125 666.33447265625 1030.6682434082031Q699.000732421875 1065.0014038085938 719.0003356933594 1105.0009765625Q738.9999389648438 1145.0005493164062 738.9999389648438 1191.6663818359375Q738.9999389648438 1275.3322143554688 679.1670532226562 1332.9983825683594Q619.3341674804688 1390.66455078125 529.00146484375 1390.66455078125Q469.00189208984375 1390.66455078125 420.66888427734375 1363.3314208984375Q372.33587646484375 1335.998291015625 344.0027160644531 1287.8319396972656Q315.6695556640625 1239.6655883789062 315.6695556640625 1176.999267578125Q315.6695556640625 1126.999755859375 336.6693420410156 1081.8333740234375Q357.66912841796875 1036.6669921875 402.1690673828125 980.3336181640625Q446.66900634765625 924.000244140625 515.6694946289062 838.6663818359375L1195.33642578125 0H1037.3333740234375L445.00177001953125 726.663818359375Q351.66717529296875 840.665283203125 294.500244140625 915.9991455078125Q237.33331298828125 991.3330078125 210.83346557617188 1051.4996337890625Q184.3336181640625 1111.666259765625 184.3336181640625 1178.9993286132812Q184.3336181640625 1275.9996337890625 228.50039672851562 1349.3330993652344Q272.66717529296875 1422.6665649414062 350.5007629394531 1463.6665954589844Q428.3343505859375 1504.6666259765625 529.00146484375 1504.6666259765625Q629.335205078125 1504.6666259765625 706.33544921875 1464.9999694824219Q783.335693359375 1425.3333129882812 827.5024719238281 1355.3332824707031Q871.6692504882812 1285.333251953125 871.6692504882812 1194.9998168945312Q871.6692504882812 1125.6669921875 844.5028991699219 1067.0004272460938Q817.3365478515625 1008.3338623046875 771.5033569335938 958.5003662109375Q725.670166015625 908.6668701171875 667.6696166992188 865.3331298828125L399.00115966796875 663.99853515625Q299.3350830078125 588.9990234375 251.00225830078125 526.4993591308594Q202.66943359375 463.99969482421875 202.66943359375 385.3338623046875Q202.66943359375 306.667724609375 246.16925048828125 241.16806030273438Q289.6690673828125 175.66839599609375 363.6687316894531 136.16854858398438Q437.66839599609375 96.668701171875 528.3345336914062 96.668701171875Q623.0007934570312 96.668701171875 707.0005187988281 140.66860961914062Q791.000244140625 184.66851806640625 855.8334350585938 261.50164794921875Q920.6666259765625 338.33477783203125 957.6665649414062 438.167724609375Q994.66650390625 538.0006713867188 994.66650390625 650.666748046875H1120.6689453125Q1120.6689453125 559.3331909179688 1101.8355102539062 476.49969482421875Q1083.0020751953125 393.66619873046875 1046.5018615722656 322.8327941894531Q1010.0016479492188 251.9993896484375 957.0012817382812 193.9993896484375L929.6676635742188 156.6656494140625Q860.0011596679688 75.332763671875 753.6677856445312 28.3330078125Q647.3344116210938 -18.666748046875 527.0011596679688 -18.666748046875Z"/>
<path fill="#4E8CA2" transform="translate(488.55,458.23) scale(0.185547,-0.185547)" d="M572.66650390625 0 20 1490H163.00286865234375L521.6672973632812 506.671875Q549.0005493164062 431.33868408203125 585.8341064453125 323.0044860839844Q622.6676635742188 214.6702880859375 673.0016479492188 64.00146484375H633.6676635742188Q682.6682739257812 214.6702880859375 719.8351745605469 323.0044860839844Q757.0020751953125 431.33868408203125 783.6686401367188 506.671875L1136.3329467773438 1490H1278.00244140625L729.6693725585938 0Z"/>
<rect x="821.39" y="129.24" width="2.5" height="381.52" fill="#4E8CA2" opacity="0.9"/>
<path fill="#202A36" transform="translate(913.39,295.56) scale(0.041016,-0.041016)" d="M154.666259765625 0V1490H290.0023193359375V823.3345336914062H1135.33251953125V1490H1270.6685791015625V0H1135.33251953125V701.3322143554688H290.0023193359375V0Z"/>
<path fill="#202A36" transform="translate(1002.08,295.56) scale(0.041016,-0.041016)" d="M745.3346557617188 -21.33349609375Q552.667724609375 -21.33349609375 404.1674499511719 76.49990844726562Q255.66717529296875 174.33331298828125 171.83364868164062 347.16668701171875Q88.0001220703125 520.0000610351562 88.0001220703125 744Q88.0001220703125 969.9999389648438 172.00030517578125 1142.8333129882812Q256.00048828125 1315.6666870117188 404.3341064453125 1413.5000915527344Q552.667724609375 1511.33349609375 745.3346557617188 1511.33349609375Q938.3349609375 1511.33349609375 1086.3352355957031 1413.5000915527344Q1234.3355102539062 1315.6666870117188 1318.1690368652344 1142.8333129882812Q1402.0025634765625 969.9999389648438 1402.0025634765625 744Q1402.0025634765625 519.666748046875 1318.1690368652344 346.8333740234375Q1234.3355102539062 174 1086.3352355957031 76.333251953125Q938.3349609375 -21.33349609375 745.3346557617188 -21.33349609375ZM745.3346557617188 106.0023193359375Q891.6672973632812 106.0023193359375 1009.8336486816406 182.1685791015625Q1128 258.3348388671875 1197.333251953125 401.33428955078125Q1266.66650390625 544.333740234375 1266.66650390625 744Q1266.66650390625 944.666259765625 1197.333251953125 1087.9990539550781Q1128 1231.3318481445312 1009.8336486816406 1307.6647644042969Q891.6672973632812 1383.9976806640625 745.3346557617188 1383.9976806640625Q599.0020141601562 1383.9976806640625 480.66900634765625 1307.9980773925781Q362.33599853515625 1231.9984741210938 292.8360900878906 1088.6656799316406Q223.336181640625 945.3328857421875 223.336181640625 744Q223.336181640625 544.6670532226562 292.5027770996094 401.6676025390625Q361.66937255859375 258.66815185546875 480.00238037109375 182.33523559570312Q598.3353881835938 106.0023193359375 745.3346557617188 106.0023193359375Z"/>
<path fill="#202A36" transform="translate(1093.43,295.56) scale(0.041016,-0.041016)" d="M154.666259765625 0V1490H339.33660888671875L763.00048828125 453.337890625Q776.6671142578125 420.6712646484375 793.5005187988281 378.00433349609375Q810.3339233398438 335.33740234375 827.8340148925781 290.00372314453125Q845.3341064453125 244.6700439453125 861.5008239746094 203.00314331054688Q877.6675415039062 161.33624267578125 889.3341064453125 130.669677734375H854.0004272460938Q865.6669921875 161.33624267578125 881.5003662109375 203.00314331054688Q897.333740234375 244.6700439453125 915.00048828125 290.00372314453125Q932.667236328125 335.33740234375 949.5006408691406 378.00433349609375Q966.3340454101562 420.6712646484375 979.333984375 453.337890625L1398.6644287109375 1490H1584.00146484375V0H1450.6654663085938V954.6611328125Q1450.6654663085938 999.99462890625 1450.9988098144531 1049.9949340820312Q1451.3321533203125 1099.9952392578125 1452.4988403320312 1151.99560546875Q1453.66552734375 1203.9959716796875 1454.6655578613281 1256.6630249023438Q1455.6655883789062 1309.330078125 1456.332275390625 1359.9970703125H1477.6658325195312Q1455.3323364257812 1299.9964599609375 1433.66552734375 1242.66259765625Q1411.9987182617188 1185.3287353515625 1391.9986267089844 1133.328369140625Q1371.99853515625 1081.3280029296875 1354.1651916503906 1036.3278503417969Q1336.3318481445312 991.3276977539062 1321.3319091796875 954.6611328125L926.3348999023438 0H812.3328247070312L416.00244140625 954.6611328125Q401.00250244140625 991.3276977539062 382.8358154296875 1036.3278503417969Q364.66912841796875 1081.3280029296875 344.335693359375 1133.328369140625Q324.00225830078125 1185.3287353515625 301.66876220703125 1242.66259765625Q279.33526611328125 1299.9964599609375 255.66839599609375 1359.9970703125H283.00213623046875Q284.33551025390625 1309.330078125 285.002197265625 1256.6630249023438Q285.66888427734375 1203.9959716796875 286.8355712890625 1151.99560546875Q288.00225830078125 1099.9952392578125 288.3356018066406 1049.9949340820312Q288.6689453125 999.99462890625 288.6689453125 954.6611328125V0Z"/>
<path fill="#202A36" transform="translate(1195.00,295.56) scale(0.041016,-0.041016)" d="M154.666259765625 0V1490H1101.3342895507812V1367.9976806640625H290.0023193359375V823.3345336914062H1037.0013427734375V701.3322143554688H290.0023193359375V122.0023193359375H1101.3342895507812V0Z"/>
<path fill="#202A36" transform="translate(1323.73,295.56) scale(0.041016,-0.041016)" d="M753.3348999023438 -21.33349609375Q555.0010986328125 -21.33349609375 405.1674499511719 75.99990844726562Q255.33380126953125 173.33331298828125 171.66696166992188 346.0000305175781Q88.0001220703125 518.666748046875 88.0001220703125 744Q88.0001220703125 970.9999389648438 171.3336181640625 1143.6666564941406Q254.6671142578125 1316.3333740234375 404.8341064453125 1413.8334350585938Q555.0010986328125 1511.33349609375 753.3348999023438 1511.33349609375Q875.0012817382812 1511.33349609375 976.8346557617188 1473.1670227050781Q1078.6680297851562 1435.0005493164062 1156.5015869140625 1366.5006713867188Q1234.3351440429688 1298.0007934570312 1284.1687316894531 1208.0006103515625Q1334.0023193359375 1118.0004272460938 1352.6691284179688 1013.3330078125H1214.3330078125Q1197.3329467773438 1092.999755859375 1157.9996337890625 1160.6661376953125Q1118.6663208007812 1228.33251953125 1059.4998474121094 1278.498779296875Q1000.3333740234375 1328.6650390625 923.1671142578125 1356.3313598632812Q846.0008544921875 1383.9976806640625 753.3348999023438 1383.9976806640625Q597.6681518554688 1383.9976806640625 478.33514404296875 1305.497802734375Q359.00213623046875 1226.9979248046875 291.1691589355469 1083.4984130859375Q223.336181640625 939.9989013671875 223.336181640625 744Q223.336181640625 548.0011596679688 291.1691589355469 405.00164794921875Q359.00213623046875 262.00213623046875 478.33514404296875 184.00222778320312Q597.6681518554688 106.0023193359375 753.3348999023438 106.0023193359375Q846.0008544921875 106.0023193359375 922.8337707519531 133.66864013671875Q999.6666870117188 161.3349609375 1058.66650390625 211.33453369140625Q1117.6663208007812 261.3341064453125 1157.4996337890625 328.6671447753906Q1197.3329467773438 396.00018310546875 1214.9996948242188 475.3336181640625H1352.6691284179688Q1334.6690063476562 371.66619873046875 1284.5020751953125 281.666015625Q1234.3351440429688 191.66583251953125 1156.5015869140625 123.49929809570312Q1078.6680297851562 55.332763671875 976.8346557617188 16.9996337890625Q875.0012817382812 -21.33349609375 753.3348999023438 -21.33349609375Z"/>
<path fill="#202A36" transform="translate(1412.90,295.56) scale(0.041016,-0.041016)" d="M745.3346557617188 -21.33349609375Q552.667724609375 -21.33349609375 404.1674499511719 76.49990844726562Q255.66717529296875 174.33331298828125 171.83364868164062 347.16668701171875Q88.0001220703125 520.0000610351562 88.0001220703125 744Q88.0001220703125 969.9999389648438 172.00030517578125 1142.8333129882812Q256.00048828125 1315.6666870117188 404.3341064453125 1413.5000915527344Q552.667724609375 1511.33349609375 745.3346557617188 1511.33349609375Q938.3349609375 1511.33349609375 1086.3352355957031 1413.5000915527344Q1234.3355102539062 1315.6666870117188 1318.1690368652344 1142.8333129882812Q1402.0025634765625 969.9999389648438 1402.0025634765625 744Q1402.0025634765625 519.666748046875 1318.1690368652344 346.8333740234375Q1234.3355102539062 174 1086.3352355957031 76.333251953125Q938.3349609375 -21.33349609375 745.3346557617188 -21.33349609375ZM745.3346557617188 106.0023193359375Q891.6672973632812 106.0023193359375 1009.8336486816406 182.1685791015625Q1128 258.3348388671875 1197.333251953125 401.33428955078125Q1266.66650390625 544.333740234375 1266.66650390625 744Q1266.66650390625 944.666259765625 1197.333251953125 1087.9990539550781Q1128 1231.3318481445312 1009.8336486816406 1307.6647644042969Q891.6672973632812 1383.9976806640625 745.3346557617188 1383.9976806640625Q599.0020141601562 1383.9976806640625 480.66900634765625 1307.9980773925781Q362.33599853515625 1231.9984741210938 292.8360900878906 1088.6656799316406Q223.336181640625 945.3328857421875 223.336181640625 744Q223.336181640625 544.6670532226562 292.5027770996094 401.6676025390625Q361.66937255859375 258.66815185546875 480.00238037109375 182.33523559570312Q598.3353881835938 106.0023193359375 745.3346557617188 106.0023193359375Z"/>
<path fill="#202A36" transform="translate(1504.26,295.56) scale(0.041016,-0.041016)" d="M154.666259765625 0V1490H307.33624267578125L990.9986572265625 466.33660888671875Q1016.998291015625 428.3370361328125 1049.6648254394531 377.00372314453125Q1082.3313598632812 325.67041015625 1117.9979858398438 268.8369140625Q1153.6646118164062 212.00341796875 1187.3311767578125 156.0032958984375L1169.9978637695312 132.0025634765625Q1168.6644897460938 184.66925048828125 1166.8311157226562 249.16964721679688Q1164.9977416992188 313.6700439453125 1164.1643981933594 373.6702880859375Q1163.3310546875 433.6705322265625 1163.3310546875 471.67010498046875V1490H1298.6671142578125V0H1144.6637573242188L507.002685546875 950.9945678710938Q479.669677734375 991.660888671875 442.3363342285156 1049.6610717773438Q405.00299072265625 1107.6612548828125 359.3360595703125 1180.3285522460938Q313.66912841796875 1252.995849609375 261.668701171875 1336.3301391601562L281.33544921875 1368.3311157226562Q284.66888427734375 1273.6631469726562 286.50225830078125 1195.3290100097656Q288.33563232421875 1116.994873046875 289.1689758300781 1055.9945983886719Q290.0023193359375 994.9943237304688 290.0023193359375 952.3279418945312V0Z"/>
<path fill="#202A36" transform="translate(1594.09,295.56) scale(0.041016,-0.041016)" d="M612.6683349609375 -23.3333740234375Q453.00091552734375 -23.3333740234375 335.00042724609375 33.333587646484375Q216.99993896484375 90.00054931640625 151.33306884765625 193.33447265625Q85.66619873046875 296.66839599609375 83.3330078125 436.6693115234375H221.3358154296875Q223.66900634765625 333.66912841796875 271.0021667480469 258.1690673828125Q318.3353271484375 182.66900634765625 405.5018615722656 142.00234985351562Q492.66839599609375 101.335693359375 612.6683349609375 101.335693359375Q728.3345947265625 101.335693359375 814.0009460449219 137.50210571289062Q899.6672973632812 173.66851806640625 947.5004577636719 239.6680908203125Q995.3336181640625 305.66766357421875 995.3336181640625 394.00048828125Q995.3336181640625 462.0001220703125 964.333740234375 512.9998168945312Q933.3338623046875 563.99951171875 865.500732421875 602.8325805664062Q797.6676025390625 641.6656494140625 685.3345336914062 671.3320922851562L518.001220703125 715.99853515625Q307.33349609375 771.6652221679688 210.9998779296875 864.3319702148438Q114.666259765625 956.9987182617188 114.666259765625 1101.33251953125Q114.666259765625 1223.9995727539062 176.1663818359375 1316.6664123535156Q237.66650390625 1409.333251953125 348.33349609375 1461.3333129882812Q459.00048828125 1513.3333740234375 604.667724609375 1513.3333740234375Q750.6682739257812 1513.3333740234375 859.1686401367188 1458.6665954589844Q967.6690063476562 1403.9998168945312 1029.3358154296875 1305.1661682128906Q1091.0026245117188 1206.33251953125 1096.0025634765625 1072.665283203125H961.9998779296875Q952.9999389648438 1216.6650390625 856.3335571289062 1302.3313293457031Q759.6671752929688 1387.9976196289062 600.6676025390625 1387.9976196289062Q499.00128173828125 1387.9976196289062 419.3349304199219 1352.1645202636719Q339.6685791015625 1316.3314208984375 294.16876220703125 1252.8318176269531Q248.6689453125 1189.3322143554688 248.6689453125 1107.3327026367188Q248.6689453125 1043.9996948242188 280.1688537597656 995.1667175292969Q311.66876220703125 946.333740234375 378.6686706542969 909.0006713867188Q445.6685791015625 871.6676025390625 552.6686401367188 842.667724609375L722.001953125 797.3345947265625Q826.6688842773438 769.3346557617188 903.5024108886719 731.66796875Q980.3359375 694.0012817382812 1030.6694030761719 645.3345336914062Q1081.0028686523438 596.6677856445312 1105.8362731933594 535.5009765625Q1130.669677734375 474.33416748046875 1130.669677734375 399.333984375Q1130.669677734375 274.66705322265625 1065.836181640625 179.16690063476562Q1001.002685546875 83.666748046875 884.5023803710938 30.16668701171875Q768.0020751953125 -23.3333740234375 612.6683349609375 -23.3333740234375Z"/>
<path fill="#202A36" transform="translate(1674.13,295.56) scale(0.041016,-0.041016)" d="M53.3331298828125 1367.9976806640625V1490H1182.0010986328125V1367.9976806640625H686.0018310546875V0H550.665771484375V1367.9976806640625Z"/>
<path fill="#202A36" transform="translate(1755.02,295.56) scale(0.041016,-0.041016)" d="M154.666259765625 0V1490H685.3342895507812Q830.6682739257812 1490 938.3352966308594 1435.6666259765625Q1046.0023193359375 1381.333251953125 1105.3357849121094 1281.6664733886719Q1164.6692504882812 1181.9996948242188 1164.6692504882812 1046.6661376953125Q1164.6692504882812 911.9992065429688 1102.835693359375 812.3323974609375Q1041.0021362304688 712.6655883789062 931.001708984375 658.3322143554688Q821.0012817382812 603.9988403320312 676.0006713867188 603.9988403320312H229.33447265625V726.0011596679688H682.6675415039062Q788.6673583984375 726.0011596679688 866.8338012695312 765.3342590332031Q945.000244140625 804.6673583984375 987.8334045410156 876.8336486816406Q1030.6665649414062 948.9999389648438 1030.6665649414062 1046.6661376953125Q1030.6665649414062 1145.6656494140625 987.5000610351562 1217.3319091796875Q944.3335571289062 1288.9981689453125 866.1671142578125 1328.4979248046875Q788.0006713867188 1367.9976806640625 681.3341674804688 1367.9976806640625H290.0023193359375V0ZM1023.9994506835938 0 664.6660766601562 672.66650390625H818.0025024414062L1181.3359985351562 0Z"/>
<path fill="#202A36" transform="translate(1836.86,295.56) scale(0.041016,-0.041016)" d="M705.334228515625 -21.33349609375Q538.1355870275128 -21.33349609375 410.5678240313345 47.499847412109375Q283.00006103515625 116.33319091796875 211.50003051757812 235.79630937649094Q140 355.2594278350131 140 507.333251953125V1490H275.3360595703125V516.6668701171875Q275.3360595703125 398.0324245926237 328.6690673828125 305.18375380021814Q382.0020751953125 212.3350830078125 478.92545514787946 159.168701171875Q575.8488351004464 106.0023193359375 705.5913792201451 106.0023193359375Q835.667236328125 106.0023193359375 932.1345900071154 159.32206453388636Q1028.6019436861059 212.6418097318352 1081.9671705735218 305.32130159443324Q1135.3323974609375 398.00079345703125 1135.3323974609375 516.6668701171875V1490H1270.66845703125V507.46793505171655Q1270.66845703125 354.90383859408104 1199.41770170806 235.4792869307195Q1128.1669463848698 116.05473526735796 1000.8165096735995 47.36061958680398Q873.4660729623292 -21.33349609375 705.334228515625 -21.33349609375Z"/>
<path fill="#202A36" transform="translate(1924.97,295.56) scale(0.041016,-0.041016)" d="M753.3348999023438 -21.33349609375Q555.0010986328125 -21.33349609375 405.1674499511719 75.99990844726562Q255.33380126953125 173.33331298828125 171.66696166992188 346.0000305175781Q88.0001220703125 518.666748046875 88.0001220703125 744Q88.0001220703125 970.9999389648438 171.3336181640625 1143.6666564941406Q254.6671142578125 1316.3333740234375 404.8341064453125 1413.8334350585938Q555.0010986328125 1511.33349609375 753.3348999023438 1511.33349609375Q875.0012817382812 1511.33349609375 976.8346557617188 1473.1670227050781Q1078.6680297851562 1435.0005493164062 1156.5015869140625 1366.5006713867188Q1234.3351440429688 1298.0007934570312 1284.1687316894531 1208.0006103515625Q1334.0023193359375 1118.0004272460938 1352.6691284179688 1013.3330078125H1214.3330078125Q1197.3329467773438 1092.999755859375 1157.9996337890625 1160.6661376953125Q1118.6663208007812 1228.33251953125 1059.4998474121094 1278.498779296875Q1000.3333740234375 1328.6650390625 923.1671142578125 1356.3313598632812Q846.0008544921875 1383.9976806640625 753.3348999023438 1383.9976806640625Q597.6681518554688 1383.9976806640625 478.33514404296875 1305.497802734375Q359.00213623046875 1226.9979248046875 291.1691589355469 1083.4984130859375Q223.336181640625 939.9989013671875 223.336181640625 744Q223.336181640625 548.0011596679688 291.1691589355469 405.00164794921875Q359.00213623046875 262.00213623046875 478.33514404296875 184.00222778320312Q597.6681518554688 106.0023193359375 753.3348999023438 106.0023193359375Q846.0008544921875 106.0023193359375 922.8337707519531 133.66864013671875Q999.6666870117188 161.3349609375 1058.66650390625 211.33453369140625Q1117.6663208007812 261.3341064453125 1157.4996337890625 328.6671447753906Q1197.3329467773438 396.00018310546875 1214.9996948242188 475.3336181640625H1352.6691284179688Q1334.6690063476562 371.66619873046875 1284.5020751953125 281.666015625Q1234.3351440429688 191.66583251953125 1156.5015869140625 123.49929809570312Q1078.6680297851562 55.332763671875 976.8346557617188 16.9996337890625Q875.0012817382812 -21.33349609375 753.3348999023438 -21.33349609375Z"/>
<path fill="#202A36" transform="translate(2014.15,295.56) scale(0.041016,-0.041016)" d="M53.3331298828125 1367.9976806640625V1490H1182.0010986328125V1367.9976806640625H686.0018310546875V0H550.665771484375V1367.9976806640625Z"/>
<path fill="#202A36" transform="translate(2095.05,295.56) scale(0.041016,-0.041016)" d="M290.0023193359375 1490V0H154.666259765625V1490Z"/>
<path fill="#202A36" transform="translate(2143.54,295.56) scale(0.041016,-0.041016)" d="M745.3346557617188 -21.33349609375Q552.667724609375 -21.33349609375 404.1674499511719 76.49990844726562Q255.66717529296875 174.33331298828125 171.83364868164062 347.16668701171875Q88.0001220703125 520.0000610351562 88.0001220703125 744Q88.0001220703125 969.9999389648438 172.00030517578125 1142.8333129882812Q256.00048828125 1315.6666870117188 404.3341064453125 1413.5000915527344Q552.667724609375 1511.33349609375 745.3346557617188 1511.33349609375Q938.3349609375 1511.33349609375 1086.3352355957031 1413.5000915527344Q1234.3355102539062 1315.6666870117188 1318.1690368652344 1142.8333129882812Q1402.0025634765625 969.9999389648438 1402.0025634765625 744Q1402.0025634765625 519.666748046875 1318.1690368652344 346.8333740234375Q1234.3355102539062 174 1086.3352355957031 76.333251953125Q938.3349609375 -21.33349609375 745.3346557617188 -21.33349609375ZM745.3346557617188 106.0023193359375Q891.6672973632812 106.0023193359375 1009.8336486816406 182.1685791015625Q1128 258.3348388671875 1197.333251953125 401.33428955078125Q1266.66650390625 544.333740234375 1266.66650390625 744Q1266.66650390625 944.666259765625 1197.333251953125 1087.9990539550781Q1128 1231.3318481445312 1009.8336486816406 1307.6647644042969Q891.6672973632812 1383.9976806640625 745.3346557617188 1383.9976806640625Q599.0020141601562 1383.9976806640625 480.66900634765625 1307.9980773925781Q362.33599853515625 1231.9984741210938 292.8360900878906 1088.6656799316406Q223.336181640625 945.3328857421875 223.336181640625 744Q223.336181640625 544.6670532226562 292.5027770996094 401.6676025390625Q361.66937255859375 258.66815185546875 480.00238037109375 182.33523559570312Q598.3353881835938 106.0023193359375 745.3346557617188 106.0023193359375Z"/>
<path fill="#202A36" transform="translate(2234.89,295.56) scale(0.041016,-0.041016)" d="M154.666259765625 0V1490H307.33624267578125L990.9986572265625 466.33660888671875Q1016.998291015625 428.3370361328125 1049.6648254394531 377.00372314453125Q1082.3313598632812 325.67041015625 1117.9979858398438 268.8369140625Q1153.6646118164062 212.00341796875 1187.3311767578125 156.0032958984375L1169.9978637695312 132.0025634765625Q1168.6644897460938 184.66925048828125 1166.8311157226562 249.16964721679688Q1164.9977416992188 313.6700439453125 1164.1643981933594 373.6702880859375Q1163.3310546875 433.6705322265625 1163.3310546875 471.67010498046875V1490H1298.6671142578125V0H1144.6637573242188L507.002685546875 950.9945678710938Q479.669677734375 991.660888671875 442.3363342285156 1049.6610717773438Q405.00299072265625 1107.6612548828125 359.3360595703125 1180.3285522460938Q313.66912841796875 1252.995849609375 261.668701171875 1336.3301391601562L281.33544921875 1368.3311157226562Q284.66888427734375 1273.6631469726562 286.50225830078125 1195.3290100097656Q288.33563232421875 1116.994873046875 289.1689758300781 1055.9945983886719Q290.0023193359375 994.9943237304688 290.0023193359375 952.3279418945312V0Z"/>
<rect x="913.39" y="339.56" width="1381.10" height="2.5" fill="#4E8CA2"/>
<path fill="#4E8CA2" transform="translate(2167.85,405.56) scale(0.025391,-0.025391)" d="M154.666259765625 0V1490H290.6689453125V122.0023193359375H1025.3345947265625V0Z"/>
<path fill="#4E8CA2" transform="translate(2212.92,405.56) scale(0.025391,-0.025391)" d="M154.666259765625 0V1490H290.6689453125V122.0023193359375H1025.3345947265625V0Z"/>
<path fill="#4E8CA2" transform="translate(2258.00,405.56) scale(0.025391,-0.025391)" d="M753.3348999023438 -21.33349609375Q555.0010986328125 -21.33349609375 405.1674499511719 75.99990844726562Q255.33380126953125 173.33331298828125 171.66696166992188 346.0000305175781Q88.0001220703125 518.666748046875 88.0001220703125 744Q88.0001220703125 970.9999389648438 171.3336181640625 1143.6666564941406Q254.6671142578125 1316.3333740234375 404.8341064453125 1413.8334350585938Q555.0010986328125 1511.33349609375 753.3348999023438 1511.33349609375Q875.0012817382812 1511.33349609375 976.8346557617188 1473.1670227050781Q1078.6680297851562 1435.0005493164062 1156.5015869140625 1366.5006713867188Q1234.3351440429688 1298.0007934570312 1284.1687316894531 1208.0006103515625Q1334.0023193359375 1118.0004272460938 1352.6691284179688 1013.3330078125H1214.3330078125Q1197.3329467773438 1092.999755859375 1157.9996337890625 1160.6661376953125Q1118.6663208007812 1228.33251953125 1059.4998474121094 1278.498779296875Q1000.3333740234375 1328.6650390625 923.1671142578125 1356.3313598632812Q846.0008544921875 1383.9976806640625 753.3348999023438 1383.9976806640625Q597.6681518554688 1383.9976806640625 478.33514404296875 1305.497802734375Q359.00213623046875 1226.9979248046875 291.1691589355469 1083.4984130859375Q223.336181640625 939.9989013671875 223.336181640625 744Q223.336181640625 548.0011596679688 291.1691589355469 405.00164794921875Q359.00213623046875 262.00213623046875 478.33514404296875 184.00222778320312Q597.6681518554688 106.0023193359375 753.3348999023438 106.0023193359375Q846.0008544921875 106.0023193359375 922.8337707519531 133.66864013671875Q999.6666870117188 161.3349609375 1058.66650390625 211.33453369140625Q1117.6663208007812 261.3341064453125 1157.4996337890625 328.6671447753906Q1197.3329467773438 396.00018310546875 1214.9996948242188 475.3336181640625H1352.6691284179688Q1334.6690063476562 371.66619873046875 1284.5020751953125 281.666015625Q1234.3351440429688 191.66583251953125 1156.5015869140625 123.49929809570312Q1078.6680297851562 55.332763671875 976.8346557617188 16.9996337890625Q875.0012817382812 -21.33349609375 753.3348999023438 -21.33349609375Z"/>
</svg>